<?xml version="1.0" encoding="UTF-8"?>
<svg id="Layer_1" data-name="Layer 1" xmlns="http://www.w3.org/2000/svg" viewBox="0 0 841.89 595.28">
  <defs>
    <style>
      .cls-1 {
        fill: #fff;
      }

      .cls-2 {
        fill: #662d91;
      }

      .cls-3 {
        fill: #1c75bc;
      }
    </style>
  </defs>
  <g>
    <rect class="cls-2" x="173.6" y="343.67" width="494.89" height="74.45"/>
    <g>
      <path class="cls-1" d="m225.84,361.46v8.6h-2.79c-.42-1.29-.82-2.34-1.21-3.13-.39-.8-.8-1.4-1.22-1.82s-.93-.71-1.5-.88c-.57-.17-1.32-.26-2.25-.26h-8.34v15.49h5.87c.83,0,1.49-.14,1.96-.41.47-.27.87-.74,1.18-1.38.31-.65.61-1.64.9-2.99h2.68v12.02h-2.68c-.28-1.29-.59-2.26-.91-2.92-.32-.65-.71-1.12-1.15-1.39s-1.11-.41-1.98-.41h-5.87v11.16c0,1.14.07,2.05.2,2.73.13.68.35,1.22.65,1.62.3.4.71.7,1.22.9.51.2,1.15.38,1.91.56v1.4h-12.64v-1.4c1.18-.3,1.96-.64,2.36-1.01.4-.37.66-.9.78-1.58.12-.68.19-1.73.19-3.13v-24.63c0-1.31-.05-2.26-.14-2.86-.1-.6-.25-1.06-.47-1.4-.22-.33-.51-.6-.87-.8-.36-.2-.98-.42-1.85-.67v-1.39h25.97Z"/>
      <path class="cls-1" d="m251.52,393.21c0,1.27.04,2.2.13,2.79.09.59.23,1.05.43,1.39.2.34.49.63.88.85.39.23,1.02.46,1.89.68v1.4h-12.02v-1.4c1.18-.3,1.96-.64,2.36-1.01.4-.37.66-.9.78-1.58.12-.68.19-1.73.19-3.13v-24.63c0-1.31-.05-2.26-.14-2.86-.1-.6-.25-1.06-.47-1.4-.22-.33-.51-.6-.87-.8-.36-.2-.98-.42-1.85-.67v-1.39h12.02v1.39c-.84.21-1.44.42-1.81.63s-.66.47-.88.78c-.22.31-.38.78-.48,1.41-.1.63-.16,1.59-.16,2.9v24.63Z"/>
      <path class="cls-1" d="m283.65,361.46v1.39c-.91.13-1.57.38-1.96.74-.4.36-.6.85-.6,1.48,0,.53.18,1.2.54,1.99s.87,1.75,1.54,2.85l4.13,6.92,4.07-6.58c.61-.99,1.06-1.77,1.37-2.36.3-.59.52-1.08.64-1.48.12-.4.19-.81.19-1.22,0-.59-.17-1.09-.51-1.49s-.91-.69-1.71-.84v-1.39h10.56v1.39c-.7.23-1.33.56-1.89,1-.56.44-1.16,1.07-1.79,1.91-.64.84-1.54,2.15-2.72,3.96l-6.44,9.97,7.23,11.9c1.03,1.69,1.76,2.87,2.21,3.54.45.67.86,1.24,1.25,1.71.39.47.81.87,1.25,1.21.45.34,1,.64,1.67.88v1.4h-12.5v-1.4c.87-.15,1.52-.39,1.94-.73s.63-.83.63-1.5c0-.53-.14-1.12-.41-1.77-.27-.64-.7-1.44-1.27-2.39l-5.15-8.6-5.44,8.91c-.91,1.5-1.37,2.73-1.37,3.7,0,.63.17,1.14.51,1.54s.91.67,1.71.83v1.4h-10.76v-1.4c.7-.21,1.28-.46,1.74-.75s.89-.67,1.31-1.13.88-1.03,1.4-1.74c.51-.7,1.33-1.93,2.45-3.67l6.72-10.48-8.03-13.21c-.76-1.21-1.33-2.1-1.72-2.65-.39-.55-.75-1-1.08-1.34-.33-.34-.63-.58-.9-.73-.27-.14-.57-.27-.91-.38v-1.39h12.13Z"/>
      <path class="cls-1" d="m327.07,393.21c0,1.27.04,2.2.13,2.79.09.59.23,1.05.43,1.39.2.34.49.63.88.85.39.23,1.02.46,1.89.68v1.4h-12.02v-1.4c1.18-.3,1.96-.64,2.36-1.01.4-.37.66-.9.78-1.58.12-.68.19-1.73.19-3.13v-24.63c0-1.31-.05-2.26-.14-2.86-.1-.6-.25-1.06-.47-1.4-.22-.33-.51-.6-.87-.8-.36-.2-.98-.42-1.85-.67v-1.39h12.02v1.39c-.84.21-1.44.42-1.81.63s-.66.47-.88.78c-.22.31-.38.78-.48,1.41-.1.63-.16,1.59-.16,2.9v24.63Z"/>
      <path class="cls-1" d="m371.82,384.93c.68,1.14,1.26,2.14,1.72,2.99.47.85.94,1.81,1.44,2.88h.37c-.1-1.16-.18-3.46-.26-6.9-.08-3.45-.11-6.55-.11-9.33v-5.98c0-1.31-.04-2.27-.11-2.88-.08-.61-.21-1.07-.41-1.39-.2-.32-.47-.58-.83-.78-.35-.2-.96-.42-1.84-.67v-1.39h10.25v1.39c-.85.23-1.46.44-1.81.63s-.64.44-.85.74c-.22.3-.38.76-.5,1.37-.11.61-.17,1.6-.17,2.99v31.92h-3.56l-15.86-26.6c-.99-1.65-1.69-2.86-2.11-3.62-.42-.76-.81-1.51-1.17-2.25h-.48c.13,1.46.23,4.11.29,7.93.06,3.83.08,7.64.08,11.43v5.81c0,1.27.04,2.2.13,2.79.08.59.23,1.05.43,1.39.2.34.49.63.88.85.39.23,1.02.46,1.89.68v1.4h-10.39v-1.4c1.18-.3,1.96-.64,2.36-1.01.4-.37.66-.9.78-1.58.12-.68.19-1.73.19-3.13v-24.63c0-1.31-.05-2.26-.14-2.86-.1-.6-.25-1.06-.47-1.4-.22-.33-.51-.6-.87-.8-.36-.2-.98-.42-1.85-.67v-1.39h8.91l14.07,23.46Z"/>
      <path class="cls-1" d="m427.56,400.19l-2.22.6-2.08-2.22c-1.23.76-2.52,1.32-3.87,1.68-1.35.36-2.9.54-4.64.54-4.8,0-8.42-1.65-10.85-4.94-2.43-3.29-3.64-8.19-3.64-14.68,0-4.04.66-7.59,1.99-10.65,1.33-3.06,3.24-5.4,5.72-7.05,2.49-1.64,5.41-2.46,8.77-2.46,1.77,0,3.46.1,5.1.3,1.63.2,3.45.55,5.44,1.04v7.83h-2.82c-.51-1.71-1.12-3.04-1.82-4-.7-.96-1.54-1.64-2.52-2.05s-2.22-.61-3.72-.61c-2.07,0-3.88.66-5.44,1.99-1.56,1.33-2.77,3.29-3.63,5.88-.86,2.59-1.3,5.72-1.3,9.38s.37,6.9,1.1,9.54,1.82,4.63,3.26,5.96c1.44,1.34,3.22,2.01,5.33,2.01,2.24,0,3.9-.49,4.98-1.47,1.08-.98,1.62-2.48,1.62-4.51v-1.71c0-1.71-.09-2.94-.27-3.7-.18-.76-.5-1.35-.95-1.77-.46-.42-1.21-.76-2.25-1.02v-1.4h11.5v1.4c-.68.23-1.2.49-1.54.78-.34.29-.6.66-.78,1.1-.18.44-.3.97-.37,1.61-.07.64-.1,1.54-.1,2.72v9.88Z"/>
      <path class="cls-1" d="m477.97,397.71h10.28c1.27,0,2.22-.12,2.83-.36s1.13-.61,1.52-1.11.76-1.21,1.08-2.12c.32-.91.71-2.32,1.17-4.24h2.79v10.45h-26.31v-1.4l19.51-34.85h-10.34c-.74,0-1.32.06-1.75.19-.43.12-.81.31-1.15.57s-.68.63-1.01,1.13c-.33.49-.66,1.17-1,2.04-.33.86-.68,1.94-1.04,3.23h-2.79v-9.77h25.69v1.37l-19.48,34.88Z"/>
      <path class="cls-1" d="m529.36,400.79c-2.28,0-4.35-.38-6.22-1.13-1.87-.75-3.47-1.92-4.81-3.5s-2.37-3.61-3.1-6.08c-.73-2.47-1.1-5.42-1.1-8.86,0-4.23.64-7.87,1.94-10.91,1.29-3.04,3.14-5.35,5.54-6.93,2.4-1.58,5.19-2.38,8.36-2.38,3.38,0,6.22.75,8.53,2.24,2.31,1.49,4.04,3.68,5.21,6.58,1.17,2.89,1.75,6.42,1.75,10.58,0,4.44-.67,8.19-1.99,11.25-1.33,3.06-3.2,5.34-5.62,6.86-2.42,1.52-5.24,2.28-8.47,2.28Zm-9.37-20.36c0,5.83.85,10.26,2.55,13.3,1.7,3.04,4.18,4.56,7.45,4.56,2.07,0,3.82-.66,5.27-1.98,1.44-1.32,2.52-3.25,3.25-5.79.72-2.54,1.08-5.51,1.08-8.91,0-4.14-.42-7.57-1.27-10.29-.85-2.72-2-4.7-3.46-5.94-1.46-1.23-3.16-1.85-5.1-1.85-1.71,0-3.18.4-4.4,1.2-1.22.8-2.24,1.93-3.05,3.4s-1.4,3.25-1.77,5.34c-.37,2.09-.56,4.41-.56,6.98Z"/>
      <path class="cls-1" d="m586.81,384.93c.68,1.14,1.26,2.14,1.72,2.99.47.85.94,1.81,1.44,2.88h.37c-.1-1.16-.18-3.46-.26-6.9-.08-3.45-.11-6.55-.11-9.33v-5.98c0-1.31-.04-2.27-.11-2.88-.08-.61-.21-1.07-.41-1.39-.2-.32-.47-.58-.83-.78-.35-.2-.96-.42-1.84-.67v-1.39h10.25v1.39c-.85.23-1.46.44-1.81.63s-.64.44-.85.74c-.22.3-.38.76-.5,1.37-.11.61-.17,1.6-.17,2.99v31.92h-3.56l-15.86-26.6c-.99-1.65-1.69-2.86-2.11-3.62-.42-.76-.81-1.51-1.17-2.25h-.48c.13,1.46.23,4.11.29,7.93.06,3.83.08,7.64.08,11.43v5.81c0,1.27.04,2.2.13,2.79.08.59.23,1.05.43,1.39.2.34.49.63.88.85.39.23,1.02.46,1.89.68v1.4h-10.39v-1.4c1.18-.3,1.96-.64,2.36-1.01.4-.37.66-.9.78-1.58.12-.68.19-1.73.19-3.13v-24.63c0-1.31-.05-2.26-.14-2.86-.1-.6-.25-1.06-.47-1.4-.22-.33-.51-.6-.87-.8-.36-.2-.98-.42-1.85-.67v-1.39h8.91l14.07,23.46Z"/>
      <path class="cls-1" d="m641.92,361.46v8.6h-2.79c-.28-.93-.58-1.75-.88-2.45-.3-.7-.62-1.29-.94-1.77s-.68-.85-1.07-1.14c-.39-.29-.85-.48-1.38-.58s-1.17-.16-1.91-.16h-9v14.92h6.09c.84,0,1.49-.12,1.96-.36.47-.24.87-.64,1.18-1.21.31-.57.61-1.46.9-2.68h2.68v10.93h-2.68c-.27-1.14-.56-2-.88-2.58-.32-.58-.71-.99-1.15-1.24-.45-.25-1.12-.37-2.01-.37h-6.09v16.43h8.86c.93,0,1.69-.08,2.26-.24.58-.16,1.08-.44,1.5-.83.42-.39.79-.9,1.11-1.52.32-.63.59-1.28.81-1.95.22-.67.52-1.66.9-2.95h2.82l-.54,9.99h-26.37v-1.4c1.18-.3,1.96-.64,2.36-1.01.4-.37.66-.9.78-1.58.12-.68.19-1.73.19-3.13v-24.63c0-1.31-.05-2.26-.14-2.86-.1-.6-.25-1.06-.47-1.4-.22-.33-.51-.6-.87-.8-.36-.2-.98-.42-1.85-.67v-1.39h26.62Z"/>
    </g>
  </g>
  <path class="cls-2" d="m271.93,318.47l-.34-60.46-67.85.59.34,60.46c.02,4.51,2.91,8.39,7.23,9.59l4.72,1.41-41.82.24,4.7-1.47c4.3-1.25,7.15-5.16,7.13-9.67l-.69-121.57c-.02-4.51-2.91-8.39-7.23-9.6l-4.72-1.4,41.82-.24-4.7,1.46c-4.3,1.26-7.15,5.17-7.12,9.68l.32,57.42,67.85-.6-.32-57c-.02-4.51-2.91-8.39-7.23-9.59l-5.54-1.61,41.82-.24-3.89,1.25c-4.29,1.26-7.14,5.17-7.12,9.68l.69,121.98c.02,4.51,2.92,8.39,7.23,9.6l3.9,1.2-41.82.24,5.52-1.67c4.3-1.26,7.15-5.17,7.12-9.68Z"/>
  <g>
    <path class="cls-3" d="m495.66,331.04c.38-13.48-.09-27.32-3.88-40.31-4.35-12.97-12.33-24.22-16.82-37.21-4.58-13.07-4.91-27.51-.88-40.74,3.83-13.18,10.46-25.58,19.69-35.63-8.5,10.57-14.65,22.99-18.08,36.07-3.6,13.48-3.31,26.45,1.32,39.62,4.26,12.86,12.37,24.33,16.18,37.43,3.56,13.24,3.6,27.2,2.47,40.77h0Z"/>
    <path class="cls-3" d="m497.15,331.49c20.35-25.82,33.86-60.03,22.99-92.62,14.05,31.76-.1,68.82-22.99,92.62h0Z"/>
    <path class="cls-3" d="m500.11,187.03c-7.88,16.51-13.08,34.64-10.21,52.9,1.42,12.26,8.6,22.73,12.43,34.41,6.01,18.57,3.63,40.02-5.88,56.68,4.19-18.2,4.43-36.7-1.99-53.93-3.15-8.42-8.56-17.08-11.02-26.25-6.17-22.34,1.32-46.97,16.66-63.81h0Z"/>
    <path class="cls-3" d="m508.05,225.7c-13.15,47.01,21.28,53.42-3.21,94.01-2.42,3.98-4.97,7.84-7.85,11.48,3.16-8.53,6.84-16.98,9.12-25.7,3.37-11.11.7-21.26-2.72-31.88-5.27-16.83-4.68-32.63,4.66-47.91h0Z"/>
  </g>
  <path class="cls-2" d="m457.64,329.77l-4.11-1.21c-5.13-1.4-9.25-5.27-10.92-10.18l-44.82-131.78h-1.03l-43.33,131.87c-1.82,5.34-6.1,9.46-11.42,10.93l-3.48,1.04,24.81-.14-5.55-1.61c-1.01-.29-1.88-.8-2.58-1.47l14.43-44.24,43.02.02,12.74,37.32c1.04,3.27-.78,6.97-4.26,8.02h.2l-5.52,1.67,41.82-.24Zm-67.09-110.86l20.51,60.39-40.21-.02,19.7-60.37Z"/>
  <path class="cls-2" d="m629.84,285.26l-1.24-2.25c-9.12-16.55-17.13-19.79-28.21-21.37,30.33-2.22,37.41-18.45,37.31-37.72-.12-20.91-8.42-37.68-44.5-37.48l-48.38.27,4.93,1.41c4.52,1.21,7.61,5.09,7.64,9.6l.68,121.57c.03,4.51-3.03,8.42-7.53,9.67l-5.12,1.26,43.26-.24-4.72-1.2c-4.52-1.21-7.62-5.09-7.64-9.6l-.31-55.01,18.21-.15c3.11,1.74,5.64,4.91,8.5,10.32,15.74,29.64,18.97,55.45,39.88,55.34l24.19-.14c-15.83-6.68-22.24-17.71-36.95-44.28Zm-53.65-24.78l-.41-72.91,17.43-.1c11.07-.06,25.9,12.97,26.04,36.75.11,20.06-10.32,32.59-20.23,36.06l-22.83.2Z"/>
</svg>